<?xml version="1.0" standalone="no"?>
<!DOCTYPE svg PUBLIC "-//W3C//DTD SVG 20010904//EN"
 "http://www.w3.org/TR/2001/REC-SVG-20010904/DTD/svg10.dtd">
<svg version="1.0" xmlns="http://www.w3.org/2000/svg"
 width="500.000000pt" height="500.000000pt" viewBox="0 0 500.000000 500.000000"
 preserveAspectRatio="xMidYMid meet">

<g transform="translate(0.000000,500.000000) scale(0.100000,-0.100000)"
fill="#fff" stroke="none">
<path d="M1260 4184 c0 -8 10 -14 24 -14 34 0 98 -24 145 -56 l42 -27 -3 -721
c-3 -711 -3 -722 -24 -767 -25 -54 -69 -84 -136 -94 -27 -4 -48 -12 -48 -19 0
-8 67 -11 240 -11 170 0 240 3 240 11 0 6 -21 14 -46 18 -74 10 -119 41 -146
100 l-23 51 -3 690 -3 690 22 -22 c12 -12 203 -244 423 -515 377 -463 405
-495 470 -535 38 -23 72 -41 75 -38 3 2 14 19 24 38 l19 35 -433 538 c-238
295 -451 565 -474 598 l-41 61 -172 1 c-141 2 -172 -1 -172 -12z"/>
<path d="M2590 4183 c0 -8 13 -13 33 -13 59 0 119 -39 147 -95 l25 -50 3 -350
c3 -347 3 -350 25 -367 12 -10 25 -18 30 -18 4 0 7 161 7 358 0 396 4 428 61
476 32 27 86 46 132 46 15 0 27 6 27 13 0 10 -51 13 -245 13 -191 -1 -245 -3
-245 -13z"/>
<path d="M3153 3463 c-127 -181 -328 -467 -448 -638 -802 -1141 -1038 -1480
-1039 -1494 0 -9 7 -16 16 -16 12 0 95 110 246 325 662 944 804 1146 1127
1605 193 275 355 506 359 514 8 12 -7 30 -25 31 -4 0 -110 -147 -236 -327z"/>
<path d="M3580 2834 c0 -7 28 -15 68 -19 120 -13 159 -43 149 -114 -6 -43
-540 -1372 -552 -1374 -5 -1 -26 36 -46 83 -186 416 -438 965 -445 965 -4 0
-26 -31 -49 -69 l-43 -69 21 -46 c150 -340 489 -1066 500 -1073 9 -4 21 -6 29
-3 7 3 150 344 317 758 167 413 317 775 332 802 49 88 103 125 202 140 26 4
46 12 44 18 -5 15 -527 16 -527 1z"/>
<path d="M430 500 l0 -200 30 0 30 0 1 153 0 152 65 -127 c86 -171 88 -171
174 0 l65 127 3 -152 3 -153 24 0 25 0 0 200 0 200 -38 0 -39 0 -62 -130 c-34
-72 -65 -130 -69 -130 -4 0 -35 59 -69 130 l-62 130 -40 0 -41 0 0 -200z"/>
<path d="M1242 518 c-44 -101 -84 -191 -87 -200 -6 -15 -2 -18 24 -18 28 0 34
5 51 45 l19 45 106 0 106 0 19 -45 c17 -40 23 -45 50 -45 38 0 43 -16 -58 215
l-79 180 -35 3 -34 3 -82 -183z m182 -45 c7 -22 6 -23 -68 -23 -42 0 -76 4
-76 9 0 5 12 35 26 67 14 33 31 70 36 84 10 24 12 21 43 -45 18 -38 35 -80 39
-92z"/>
<path d="M1889 677 c-43 -28 -58 -80 -38 -123 15 -31 50 -52 141 -85 46 -16
59 -26 64 -46 16 -61 -75 -82 -162 -38 -46 23 -50 24 -62 8 -7 -10 -11 -22 -9
-28 6 -16 78 -53 119 -60 136 -23 238 85 164 172 -17 20 -49 38 -97 54 -78 26
-111 58 -92 87 19 30 64 35 127 14 l57 -19 10 24 c12 33 13 32 -26 49 -55 23
-155 19 -196 -9z"/>
<path d="M2479 677 c-43 -28 -58 -80 -38 -123 15 -31 50 -52 141 -85 46 -16
59 -26 64 -46 16 -61 -75 -82 -162 -38 -46 23 -50 24 -62 8 -7 -10 -11 -22 -9
-28 6 -16 78 -53 119 -60 136 -23 238 85 164 172 -17 20 -49 38 -97 54 -78 26
-111 58 -92 87 19 30 64 35 127 14 l57 -19 10 24 c12 33 13 32 -26 49 -55 23
-155 19 -196 -9z"/>
<path d="M3143 663 c-8 -21 -46 -108 -84 -193 -38 -85 -69 -158 -69 -162 0 -4
13 -8 29 -8 25 0 32 6 48 45 l18 45 107 0 106 0 19 -45 c16 -41 21 -45 52 -45
22 0 32 4 28 13 -2 6 -42 96 -87 200 l-83 187 -34 0 c-30 0 -36 -5 -50 -37z
m91 -123 c20 -46 36 -86 36 -87 0 -2 -36 -3 -79 -3 l-79 0 34 81 c37 89 44
102 49 97 2 -2 20 -41 39 -88z"/>
<path d="M3785 686 c-86 -37 -132 -117 -122 -208 8 -69 46 -121 110 -153 62
-31 117 -32 192 -4 l55 20 0 80 c0 78 0 79 -25 79 -24 0 -25 -3 -25 -58 0 -53
-2 -60 -25 -70 -36 -17 -110 -15 -145 3 -70 36 -98 142 -54 202 53 70 121 89
200 54 46 -21 49 -21 61 -5 19 26 17 30 -32 53 -52 24 -143 28 -190 7z"/>
<path d="M4360 500 l0 -200 145 0 145 0 0 30 0 30 -115 0 -116 0 3 58 3 57 98
3 c96 3 97 3 97 27 0 25 0 25 -100 25 l-101 0 3 58 3 57 108 3 c106 3 107 3
107 27 l0 25 -140 0 -140 0 0 -200z"/>
</g>
</svg>
